<?xml version="1.0" encoding="UTF-8" standalone="no"?> <svg width="64" height="64" viewBox="0 0 64 64" fill="none" xmlns="http://www.w3.org/2000/svg">
<path d="M32 10.5C26.3003 10.5079 20.8363 12.7757 16.806 16.806C12.7757 20.8363 10.5079 26.3003 10.5 32C11.68 60.52 52.32 60.51 53.5 32C53.4921 26.3003 51.2243 20.8363 47.194 16.806C43.1637 12.7757 37.6997 10.5079 32 10.5V10.5Z" fill="#78B9EB"/>
<path d="M32 10.5C26.3003 10.5079 20.8363 12.7757 16.806 16.806C12.7757 20.8363 10.5079 26.3003 10.5 32C11.68 60.52 52.32 60.51 53.5 32C53.4921 26.3003 51.2243 20.8363 47.194 16.806C43.1637 12.7757 37.6997 10.5079 32 10.5V10.5ZM32 50.5C27.0951 50.4947 22.3926 48.5439 18.9244 45.0756C15.4561 41.6074 13.5053 36.9049 13.5 32C14.5 7.46 49.5 7.46 50.5 32C50.4947 36.9049 48.5439 41.6074 45.0756 45.0756C41.6074 48.5439 36.9049 50.4947 32 50.5V50.5Z" fill="#006DF0"/>
<path d="M42.3001 21.7001C42.1615 21.5598 41.9964 21.4484 41.8145 21.3724C41.6325 21.2964 41.4373 21.2572 41.2401 21.2572C41.0429 21.2572 40.8476 21.2964 40.6657 21.3724C40.4837 21.4484 40.3187 21.5598 40.1801 21.7001L32.0001 29.8801L23.8201 21.7001C23.6827 21.5527 23.5171 21.4345 23.3331 21.3525C23.1492 21.2705 22.9505 21.2264 22.7491 21.2229C22.5477 21.2193 22.3477 21.2564 22.1609 21.3318C21.9741 21.4073 21.8044 21.5196 21.662 21.662C21.5196 21.8044 21.4073 21.9741 21.3318 22.1609C21.2564 22.3477 21.2193 22.5477 21.2229 22.7491C21.2264 22.9505 21.2705 23.1492 21.3525 23.3331C21.4345 23.5171 21.5527 23.6827 21.7001 23.8201L29.8801 32.0001L21.7001 40.1801C21.4351 40.4644 21.2909 40.8405 21.2977 41.2291C21.3046 41.6177 21.462 41.9885 21.7368 42.2633C22.0117 42.5381 22.3824 42.6956 22.771 42.7024C23.1596 42.7093 23.5357 42.565 23.8201 42.3001L32.0001 34.1201L40.1801 42.3001C40.4644 42.565 40.8405 42.7093 41.2291 42.7024C41.6177 42.6956 41.9885 42.5381 42.2633 42.2633C42.5381 41.9885 42.6956 41.6177 42.7024 41.2291C42.7093 40.8405 42.565 40.4644 42.3001 40.1801L34.1201 32.0001L42.3001 23.8201C42.4404 23.6815 42.5517 23.5164 42.6278 23.3345C42.7038 23.1525 42.7429 22.9573 42.7429 22.7601C42.7429 22.5629 42.7038 22.3676 42.6278 22.1857C42.5517 22.0037 42.4404 21.8387 42.3001 21.7001V21.7001Z" fill="#006DF0"/>
</svg>
