<?xml version="1.0" encoding="UTF-8" standalone="no"?> <svg width="64" height="64" viewBox="0 0 64 64" fill="none" xmlns="http://www.w3.org/2000/svg">
<path d="M41.56 21.45H21.45V42.24H41.56V21.45Z" fill="#78B9EB"/>
<path d="M60 2.5H17.14C16.7422 2.5 16.3606 2.65804 16.0793 2.93934C15.798 3.22064 15.64 3.60218 15.64 4V15.64H4C3.60218 15.64 3.22064 15.798 2.93934 16.0793C2.65804 16.3606 2.5 16.7422 2.5 17.14V60C2.5 60.3978 2.65804 60.7794 2.93934 61.0607C3.22064 61.342 3.60218 61.5 4 61.5H46.86C47.2578 61.5 47.6394 61.342 47.9207 61.0607C48.202 60.7794 48.36 60.3978 48.36 60V48.36H60C60.3978 48.36 60.7794 48.202 61.0607 47.9207C61.342 47.6394 61.5 47.2578 61.5 46.86V4C61.5 3.60218 61.342 3.22064 61.0607 2.93934C60.7794 2.65804 60.3978 2.5 60 2.5ZM58.5 45.36H46.86C46.4622 45.36 46.0806 45.518 45.7993 45.7993C45.518 46.0806 45.36 46.4622 45.36 46.86V58.5H5.5V18.64H17.14C17.5378 18.64 17.9194 18.482 18.2007 18.2007C18.482 17.9194 18.64 17.5378 18.64 17.14V5.5H58.5V45.36Z" fill="#006DF0"/>
<path d="M22 43.5H42C42.3978 43.5 42.7794 43.342 43.0607 43.0607C43.342 42.7794 43.5 42.3978 43.5 42V22C43.5 21.6022 43.342 21.2206 43.0607 20.9393C42.7794 20.658 42.3978 20.5 42 20.5H22C21.6022 20.5 21.2206 20.658 20.9393 20.9393C20.658 21.2206 20.5 21.6022 20.5 22V42C20.5 42.3978 20.658 42.7794 20.9393 43.0607C21.2206 43.342 21.6022 43.5 22 43.5ZM23.5 23.5H40.5V40.5H23.5V23.5Z" fill="#006DF0"/>
</svg>
