<?xml version="1.0" encoding="UTF-8" standalone="no"?> <svg width="64" height="64" viewBox="0 0 64 64" fill="none" xmlns="http://www.w3.org/2000/svg">
<path d="M29.3399 33.24C29.0126 32.9103 28.8289 32.4646 28.8289 32C28.8289 31.5355 29.0126 31.0897 29.3399 30.76L40.9099 19.2C41.7014 18.4021 42.1454 17.3239 42.1454 16.2C42.1454 15.0762 41.7014 13.9979 40.9099 13.2C40.5162 12.8058 40.0485 12.493 39.5337 12.2796C39.019 12.0661 38.4672 11.9563 37.9099 11.9563C37.3527 11.9563 36.8009 12.0661 36.2861 12.2796C35.7714 12.493 35.3037 12.8058 34.9099 13.2L19.0899 29C18.2961 29.7966 17.8503 30.8754 17.8503 32C17.8503 33.1247 18.2961 34.2034 19.0899 35L34.8999 50.81C35.4943 51.4023 36.2506 51.8054 37.0737 51.9686C37.8967 52.1317 38.7496 52.0475 39.525 51.7267C40.3003 51.4059 40.9633 50.8628 41.4304 50.1658C41.8975 49.4688 42.1479 48.6491 42.1499 47.81C42.1504 47.253 42.0412 46.7014 41.8284 46.1867C41.6156 45.6719 41.3035 45.2041 40.9099 44.81L29.3399 33.24Z" fill="#78B9EB"/>
<path d="M32 2.75C26.2149 2.75 20.5597 4.46548 15.7496 7.67951C10.9394 10.8935 7.1904 15.4618 4.97654 20.8065C2.76267 26.1512 2.18343 32.0324 3.31204 37.7064C4.44066 43.3803 7.22645 48.5922 11.3171 52.6829C15.4078 56.7736 20.6197 59.5594 26.2936 60.688C31.9676 61.8166 37.8488 61.2373 43.1935 59.0235C48.5382 56.8096 53.1065 53.0606 56.3205 48.2504C59.5345 43.4403 61.25 37.7851 61.25 32C61.2421 24.2449 58.1578 16.8096 52.6741 11.3259C47.1904 5.84218 39.7552 2.75794 32 2.75V2.75ZM32 58.75C26.7094 58.75 21.5375 57.1811 17.1385 54.2418C12.7395 51.3025 9.31088 47.1247 7.28624 42.2368C5.26159 37.3489 4.73185 31.9703 5.76401 26.7813C6.79616 21.5923 9.34385 16.8259 13.0849 13.0849C16.826 9.34384 21.5924 6.79615 26.7813 5.76399C31.9703 4.73184 37.3489 5.26158 42.2368 7.28622C47.1247 9.31087 51.3025 12.7395 54.2418 17.1385C57.1812 21.5375 58.75 26.7093 58.75 32C58.7421 39.0921 55.9212 45.8915 50.9063 50.9063C45.8915 55.9212 39.0921 58.7421 32 58.75V58.75Z" fill="#006DF0"/>
<path d="M40.9099 19.2C41.7014 18.4021 42.1454 17.3239 42.1454 16.2C42.1454 15.0762 41.7014 13.9979 40.9099 13.2C40.5162 12.8058 40.0485 12.493 39.5337 12.2796C39.019 12.0661 38.4672 11.9563 37.9099 11.9563C37.3527 11.9563 36.8009 12.0661 36.2861 12.2796C35.7714 12.493 35.3037 12.8058 34.9099 13.2L19.0899 29C18.2961 29.7966 17.8503 30.8754 17.8503 32C17.8503 33.1247 18.2961 34.2034 19.0899 35L34.8999 50.81C35.4943 51.4023 36.2506 51.8054 37.0737 51.9686C37.8967 52.1317 38.7496 52.0475 39.525 51.7267C40.3003 51.4059 40.9633 50.8628 41.4304 50.1658C41.8975 49.4688 42.1479 48.6491 42.1499 47.81C42.1504 47.253 42.0412 46.7014 41.8284 46.1867C41.6156 45.6719 41.3035 45.2041 40.9099 44.81L29.3399 33.24C29.0126 32.9103 28.8289 32.4646 28.8289 32C28.8289 31.5355 29.0126 31.0897 29.3399 30.76L40.9099 19.2ZM27.5799 35L39.1399 46.57C39.4673 46.8997 39.6509 47.3455 39.6509 47.81C39.6509 48.2746 39.4673 48.7203 39.1399 49.05C38.8071 49.3673 38.3648 49.5443 37.9049 49.5443C37.4451 49.5443 37.0028 49.3673 36.6699 49.05L20.8599 33.24C20.5326 32.9103 20.3489 32.4646 20.3489 32C20.3489 31.5355 20.5326 31.0897 20.8599 30.76L36.6699 15C36.9988 14.6725 37.4443 14.489 37.9085 14.4899C38.3726 14.4909 38.8174 14.6762 39.1449 15.005C39.4725 15.3339 39.656 15.7794 39.655 16.2436C39.6541 16.7077 39.4688 17.1525 39.1399 17.48L27.5799 29C27.1857 29.3938 26.8729 29.8615 26.6595 30.3762C26.4461 30.891 26.3362 31.4428 26.3362 32C26.3362 32.5573 26.4461 33.1091 26.6595 33.6238C26.8729 34.1386 27.1857 34.6062 27.5799 35V35Z" fill="#006DF0"/>
</svg>
