<?xml version="1.0" encoding="UTF-8" standalone="no"?> <svg width="64" height="64" viewBox="0 0 64 64" fill="none" xmlns="http://www.w3.org/2000/svg">
<path d="M32 10.5C26.3003 10.5079 20.8363 12.7757 16.806 16.806C12.7757 20.8363 10.5079 26.3003 10.5 32C11.68 60.52 52.32 60.51 53.5 32C53.4921 26.3003 51.2243 20.8363 47.194 16.806C43.1637 12.7757 37.6997 10.5079 32 10.5V10.5Z" fill="#78B9EB"/>
<path d="M32 10.5C26.3003 10.5079 20.8363 12.7757 16.806 16.806C12.7757 20.8363 10.5079 26.3003 10.5 32C11.68 60.52 52.32 60.51 53.5 32C53.4921 26.3003 51.2243 20.8363 47.194 16.806C43.1637 12.7757 37.6997 10.5079 32 10.5V10.5ZM32 50.5C27.0951 50.4947 22.3926 48.5439 18.9244 45.0756C15.4561 41.6074 13.5053 36.9049 13.5 32C14.5 7.46 49.5 7.46 50.5 32C50.4947 36.9049 48.5439 41.6074 45.0756 45.0756C41.6074 48.5439 36.9049 50.4947 32 50.5V50.5Z" fill="#006DF0"/>
<path d="M45.0697 30.5H18.9297C18.5319 30.5 18.1503 30.658 17.869 30.9393C17.5877 31.2206 17.4297 31.6022 17.4297 32C17.4297 32.3978 17.5877 32.7794 17.869 33.0607C18.1503 33.342 18.5319 33.5 18.9297 33.5H45.0697C45.4675 33.5 45.849 33.342 46.1303 33.0607C46.4117 32.7794 46.5697 32.3978 46.5697 32C46.5697 31.6022 46.4117 31.2206 46.1303 30.9393C45.849 30.658 45.4675 30.5 45.0697 30.5Z" fill="#006DF0"/>
</svg>
